<svg width="14" height="10" viewBox="0 0 14 10" fill="none" xmlns="http://www.w3.org/2000/svg">
<path d="M1.41477 9H0.306818L3.51136 0.272727H4.60227L7.80682 9H6.69886L4.09091 1.65341H4.02273L1.41477 9ZM1.82386 5.59091H6.28977V6.52841H1.82386V5.59091ZM10.956 9.15341C10.5412 9.15341 10.1648 9.07528 9.8267 8.91903C9.48864 8.75994 9.22017 8.53125 9.02131 8.23295C8.82244 7.93182 8.72301 7.56818 8.72301 7.14205C8.72301 6.76705 8.79688 6.46307 8.9446 6.23011C9.09233 5.99432 9.28977 5.80966 9.53693 5.67614C9.78409 5.54261 10.0568 5.44318 10.3551 5.37784C10.6563 5.30966 10.9588 5.25568 11.2628 5.21591C11.6605 5.16477 11.983 5.12642 12.2301 5.10085C12.4801 5.07244 12.6619 5.02557 12.7756 4.96023C12.892 4.89489 12.9503 4.78125 12.9503 4.61932V4.58523C12.9503 4.16477 12.8352 3.83807 12.6051 3.60511C12.3778 3.37216 12.0327 3.25568 11.5696 3.25568C11.0895 3.25568 10.7131 3.3608 10.4403 3.57102C10.1676 3.78125 9.97585 4.00568 9.86506 4.24432L8.91051 3.90341C9.08097 3.50568 9.30824 3.19602 9.59233 2.97443C9.87926 2.75 10.1918 2.59375 10.5298 2.50568C10.8707 2.41477 11.206 2.36932 11.5355 2.36932C11.7457 2.36932 11.9872 2.39489 12.2599 2.44602C12.5355 2.49432 12.8011 2.59517 13.0568 2.74858C13.3153 2.90199 13.5298 3.13352 13.7003 3.44318C13.8707 3.75284 13.956 4.16761 13.956 4.6875V9H12.9503V8.11364H12.8991C12.831 8.25568 12.7173 8.40767 12.5582 8.5696C12.3991 8.73153 12.1875 8.86932 11.9233 8.98295C11.6591 9.09659 11.3366 9.15341 10.956 9.15341ZM11.1094 8.25C11.5071 8.25 11.8423 8.17188 12.1151 8.01562C12.3906 7.85938 12.598 7.65767 12.7372 7.41051C12.8793 7.16335 12.9503 6.90341 12.9503 6.63068V5.71023C12.9077 5.76136 12.8139 5.80824 12.669 5.85085C12.527 5.89062 12.3622 5.92614 12.1747 5.95739C11.9901 5.9858 11.8097 6.01136 11.6335 6.03409C11.4602 6.05398 11.3196 6.07102 11.2116 6.08523C10.9503 6.11932 10.706 6.17472 10.4787 6.25142C10.2543 6.32528 10.0724 6.4375 9.93324 6.58807C9.79688 6.7358 9.72869 6.9375 9.72869 7.19318C9.72869 7.54261 9.85795 7.80682 10.1165 7.9858C10.3778 8.16193 10.7088 8.25 11.1094 8.25Z" fill="#B83169"/>
</svg>
