<svg width="19" height="20" viewBox="0 0 19 20" fill="none" xmlns="http://www.w3.org/2000/svg">
<path d="M17.2152 0.961661C17.194 0.686333 16.9536 0.480304 16.6783 0.501482L12.1916 0.846616C11.9162 0.867796 11.7102 1.10816 11.7314 1.38349C11.7526 1.65882 11.9929 1.86485 12.2683 1.84367L16.2565 1.53689L16.5633 5.5251C16.5844 5.80043 16.8248 6.00646 17.1001 5.98528C17.3755 5.9641 17.5815 5.72374 17.5603 5.44841L17.2152 0.961661ZM1.47728 19.5476L2.12808 18.7883L1.36882 18.1375L0.718028 18.8968L1.47728 19.5476ZM3.42966 17.2698L4.73124 15.7513L3.97198 15.1005L2.6704 16.619L3.42966 17.2698ZM6.03282 14.2328L7.33441 12.7143L6.57515 12.0635L5.27357 13.582L6.03282 14.2328ZM8.63599 11.1957L9.93757 9.67723L9.17832 9.02644L7.87673 10.5449L8.63599 11.1957ZM11.2392 8.15871L12.5407 6.6402L11.7815 5.98941L10.4799 7.50792L11.2392 8.15871ZM13.8423 5.12169L15.1439 3.60318L14.3846 2.95238L13.0831 4.4709L13.8423 5.12169ZM16.4455 2.08466L17.0963 1.32541L16.337 0.674614L15.6862 1.43387L16.4455 2.08466ZM17.7137 0.923312C17.6713 0.372655 17.1906 -0.0394035 16.64 0.0029545L7.66646 0.693224C7.1158 0.735582 6.70375 1.21632 6.7461 1.76697C6.78846 2.31763 7.2692 2.72969 7.81985 2.68733L15.7963 2.07376L16.4099 10.0502C16.4522 10.6009 16.933 11.0129 17.4836 10.9706C18.0343 10.9282 18.4463 10.4475 18.404 9.8968L17.7137 0.923312ZM1.85691 19.873L2.5077 19.1137L0.989191 17.8121L0.3384 18.5714L1.85691 19.873ZM3.80929 17.5952L5.11087 16.0767L3.59236 14.7751L2.29077 16.2936L3.80929 17.5952ZM6.41245 14.5582L7.71403 13.0396L6.19552 11.7381L4.89394 13.2566L6.41245 14.5582ZM9.01562 11.5211L10.3172 10.0026L8.79869 8.70104L7.4971 10.2196L9.01562 11.5211ZM11.6188 8.48411L12.9204 6.9656L11.4019 5.66401L10.1003 7.18253L11.6188 8.48411ZM14.2219 5.44708L15.5235 3.92857L14.005 2.62699L12.7034 4.1455L14.2219 5.44708ZM16.8251 2.41006L17.4759 1.6508L15.9574 0.349218L15.3066 1.10847L16.8251 2.41006Z" fill="#3B3035"/>
</svg>
