<svg width="29" height="20" viewBox="0 0 29 20" fill="none" xmlns="http://www.w3.org/2000/svg">
<path d="M27.551 7.22348C27.7889 7.81285 27.9531 8.42458 28.0357 9.05323L27.54 9.11841C27.5781 9.40858 27.5977 9.70261 27.5977 10C27.5977 10.2974 27.5781 10.5914 27.54 10.8816L28.0357 10.9468C27.9531 11.5754 27.7889 12.1872 27.551 12.7765L27.0873 12.5893C26.8689 13.1304 26.5829 13.6539 26.2347 14.1549L26.6453 14.4402C26.2927 14.9477 25.8815 15.4307 25.4181 15.8847L25.0682 15.5276C24.6475 15.9398 24.18 16.3286 23.6706 16.6897L23.9598 17.0976C23.4562 17.4547 22.9148 17.7846 22.3402 18.084L22.1092 17.6406C21.5788 17.917 21.0182 18.167 20.4313 18.3875L20.6072 18.8556C20.0265 19.0738 19.4217 19.2638 18.7964 19.4229L18.6731 18.9383C18.0875 19.0873 17.4829 19.2086 16.8624 19.2998L16.9352 19.7945C16.3197 19.885 15.6894 19.9466 15.0473 19.9774L15.0235 19.4779C14.7176 19.4926 14.4089 19.5 14.0977 19.5C13.7865 19.5 13.4777 19.4926 13.1719 19.4779L13.148 19.9774C12.5059 19.9466 11.8756 19.885 11.2601 19.7945L11.3329 19.2998C10.7124 19.2086 10.1078 19.0873 9.52222 18.9383L9.39893 19.4229C8.77365 19.2638 8.16886 19.0738 7.58816 18.8556L7.76405 18.3875C7.17713 18.167 6.61654 17.917 6.08615 17.6406L5.85509 18.084C5.28054 17.7846 4.73912 17.4547 4.23549 17.0976L4.52467 16.6897C4.01528 16.3286 3.54786 15.9398 3.12711 15.5276L2.77719 15.8847C2.31377 15.4307 1.9026 14.9477 1.54998 14.4402L1.96058 14.1549C1.61244 13.6539 1.32645 13.1304 1.10797 12.5893L0.644343 12.7765C0.406362 12.1872 0.242235 11.5754 0.159582 10.9468L0.655316 10.8816C0.617167 10.5914 0.597656 10.2974 0.597656 10C0.597656 9.70261 0.617167 9.40858 0.655316 9.11841L0.159582 9.05323C0.242235 8.42458 0.406362 7.81285 0.644342 7.22348L1.10797 7.41069C1.32645 6.86962 1.61244 6.34606 1.96058 5.84509L1.54998 5.55976C1.9026 5.05234 2.31377 4.56934 2.77719 4.11529L3.12711 4.47243C3.54786 4.06019 4.01528 3.6714 4.52467 3.31026L4.23549 2.90237C4.73912 2.54531 5.28054 2.21542 5.85509 1.91602L6.08615 2.35943C6.61654 2.08304 7.17713 1.83303 7.76405 1.61246L7.58816 1.14442C8.16886 0.926184 8.77365 0.736237 9.39893 0.577145L9.52222 1.06171C10.1078 0.912709 10.7124 0.791426 11.3329 0.700195L11.2601 0.205514C11.8756 0.115013 12.5059 0.0533682 13.148 0.0226456L13.1719 0.522074C13.4777 0.507439 13.7865 0.5 14.0977 0.5C14.4089 0.5 14.7176 0.507439 15.0235 0.522074L15.0473 0.0226456C15.6894 0.0533681 16.3197 0.115013 16.9352 0.205514L16.8624 0.700195C17.4829 0.791426 18.0875 0.912709 18.6731 1.06171L18.7964 0.577145C19.4217 0.736237 20.0265 0.926184 20.6072 1.14442L20.4313 1.61246C21.0182 1.83303 21.5788 2.08304 22.1092 2.35943L22.3402 1.91602C22.9148 2.21542 23.4562 2.54531 23.9598 2.90237L23.6706 3.31026C24.18 3.6714 24.6475 4.06018 25.0682 4.47243L25.4181 4.11529C25.8815 4.56934 26.2927 5.05234 26.6453 5.55976L26.2347 5.84509C26.5829 6.34606 26.8689 6.86962 27.0873 7.41068L27.551 7.22348Z" fill="#3B3035" fill-opacity="0.47" stroke="black" stroke-dasharray="2 2"/>
</svg>
