<svg width="19" height="18" viewBox="0 0 19 18" fill="none" xmlns="http://www.w3.org/2000/svg">
<path d="M0.0976562 18V13.7942L9.53576 4.35605L7.73326 2.55355L8.75969 1.52712L11.0629 3.83032L14.6178 0.275382C14.8014 0.0917942 14.9975 0 15.2061 0C15.4148 0 15.6109 0.0917942 15.7945 0.275382L17.8223 2.3032C18.0059 2.48679 18.0977 2.68289 18.0977 2.89152C18.0977 3.10014 18.0059 3.29624 17.8223 3.47983L14.2673 7.03477L16.5705 9.33797L15.5441 10.3644L13.7416 8.56189L4.3035 18H0.0976562ZM1.59974 16.4979H3.77777L12.6651 7.61057L10.4871 5.43255L1.59974 14.3199V16.4979ZM13.1908 5.98331L16.2952 2.879L15.2187 1.8025L12.1143 4.90682L13.1908 5.98331Z" fill="#4E4C4C" fill-opacity="0.92"/>
</svg>
